<svg width="24" height="24" viewBox="0 0 24 24" fill="none" xmlns="http://www.w3.org/2000/svg">
<path d="M11.9999 1.5C6.2015 1.5 1.49994 6.20156 1.49994 12C1.49994 17.7984 6.2015 22.5 11.9999 22.5C17.7984 22.5 22.4999 17.7984 22.4999 12C22.4999 6.20156 17.7984 1.5 11.9999 1.5ZM11.9999 20.7188C7.18588 20.7188 3.28119 16.8141 3.28119 12C3.28119 7.18594 7.18588 3.28125 11.9999 3.28125C16.814 3.28125 20.7187 7.18594 20.7187 12C20.7187 16.8141 16.814 20.7188 11.9999 20.7188Z" fill="#002766"/>
<path d="M10.8749 7.875C10.8749 8.17337 10.9935 8.45952 11.2044 8.6705C11.4154 8.88147 11.7016 9 11.9999 9C12.2983 9 12.5845 8.88147 12.7954 8.6705C13.0064 8.45952 13.1249 8.17337 13.1249 7.875C13.1249 7.57663 13.0064 7.29048 12.7954 7.0795C12.5845 6.86853 12.2983 6.75 11.9999 6.75C11.7016 6.75 11.4154 6.86853 11.2044 7.0795C10.9935 7.29048 10.8749 7.57663 10.8749 7.875ZM12.5624 10.5H11.4374C11.3343 10.5 11.2499 10.5844 11.2499 10.6875V17.0625C11.2499 17.1656 11.3343 17.25 11.4374 17.25H12.5624C12.6656 17.25 12.7499 17.1656 12.7499 17.0625V10.6875C12.7499 10.5844 12.6656 10.5 12.5624 10.5Z" fill="#002766"/>
</svg>
